<svg xmlns="http://www.w3.org/2000/svg" xmlns:xlink="http://www.w3.org/1999/xlink" xmlns:serif="http://www.serif.com/" viewBox="0 0 534 667.5" version="1.1" xml:space="preserve" style="" x="0px" y="0px" fill-rule="evenodd" clip-rule="evenodd" stroke-linejoin="round" stroke-miterlimit="2"><g><path d="M266.667,37.5c126.48,0 229.166,102.686 229.166,229.167c0,126.48 -102.686,229.166 -229.166,229.166c-126.481,0 -229.167,-102.686 -229.167,-229.166c-0,-126.481 102.686,-229.167 229.167,-229.167Zm-0,14.31c-118.583,0 -214.857,96.274 -214.857,214.857c0,118.582 96.274,214.856 214.857,214.856c118.582,-0 214.856,-96.274 214.856,-214.856c-0,-118.583 -96.274,-214.857 -214.856,-214.857Z"/><path d="M266.667,60.144c113.983,-0 206.523,92.54 206.523,206.523c-0,113.983 -92.54,206.523 -206.523,206.523c-113.983,-0 -206.523,-92.54 -206.523,-206.523c-0,-113.983 92.54,-206.523 206.523,-206.523Zm-7.625,300.016c0,0 -36.397,-40.969 -54.332,-50.059c-19.088,-9.675 -50.193,-25.429 -58.727,-64.254c-4.963,-22.574 2.821,-35.009 8.542,-44.711c1.306,-2.214 2.495,-4.255 3.294,-6.26c0.899,-2.253 1.26,-4.428 0.278,-6.837c-1.853,-4.547 -6.239,-5.471 -10.528,-5.245c-5.252,0.276 -10.591,2.321 -13.177,3.924c-7.317,4.534 -14.722,13.72 -19.671,25.807c-11.983,29.266 -9.088,75.168 43.863,116.915c0.061,0.049 0.122,0.1 0.181,0.152c-0,-0 29.03,25.68 66.837,35.836c16.025,4.305 28.211,10.255 34.887,18.947c5.838,7.603 13.999,16.102 23.7,21.494c9.164,5.093 19.748,7.372 30.979,2.926c11.027,-4.366 16.024,-9.627 17.862,-13.675c0.273,-0.601 0.455,-1.302 0.57,-1.864c-2.659,-0.947 -9.62,-2.93 -14.929,-0.083c-10.105,5.418 -18.484,5.737 -25.395,3.458c-10.033,-3.308 -17.102,-12.487 -21.864,-20.914c-0.955,-1.69 -0.617,-3.815 0.816,-5.125c17.294,-15.81 26.729,-18.722 41.829,-21.526c9.481,-1.761 21.341,-3.457 39.359,-8.656c31.662,-9.134 66.244,-33.162 71.279,-69.372c4.992,-35.907 -2.743,-57.602 -12.913,-69.39c-6.179,-7.162 -13.104,-10.515 -18.029,-10.897c-3.117,-0.241 -5.122,-0.186 -6.248,0.946c-1.056,1.062 -1.009,2.794 -0.955,4.909c0.177,6.998 2.764,17.094 2.764,28.727c-0,26.701 -10.21,63.949 -53.413,87.783c-16.832,9.286 -27.342,12.554 -35.704,15.676c-11.729,4.378 -18.817,8.598 -34.644,30.998c-2.015,2.753 -4.199,2.649 -6.511,0.37Zm-42.692,-159.379c0.227,1.294 0.618,2.867 1.275,4.684c2.7,7.461 9.312,18.91 24.641,35.087c19.385,20.458 17.602,35.417 17.602,35.417c-0.143,1.556 -1.145,2.902 -2.595,3.485c-1.45,0.583 -3.104,0.306 -4.284,-0.718c-8.753,-7.59 -26.489,-14.782 -40.146,-24.996c-10.077,-7.538 -17.963,-16.685 -19.772,-28.269c-0.988,-6.326 -5.136,-9.374 -7.424,-10.597c-2.736,1.931 -8.336,7.143 -7.632,17.109c1.079,15.271 14.875,39.279 39.47,52.641c16.144,8.77 29.092,18.049 37.301,27.141c2.76,3.057 4.998,6.114 6.69,9.138c5.356,-8.692 16.567,-21.106 39.127,-28.788c22.742,-7.744 48.384,-27.651 53.747,-50.68c3.529,-15.153 -1.082,-25.31 -4.225,-30.1c-2.259,2.829 -5.618,8.214 -8.571,17.662c-7.87,25.176 -32.57,40.82 -69.385,48.862c-1.895,0.414 -3.825,-0.535 -4.655,-2.289c-0.83,-1.753 -0.34,-3.848 1.183,-5.051c-0,0 15.923,-12.595 28.571,-30.836c7.242,-10.444 13.472,-22.759 14.71,-35.627c-10.121,2.821 -33.305,12.842 -41.219,46.393c-0,-0 -0.843,3.96 -3.895,3.96c-2.858,-0 -4.105,-3.572 -4.105,-3.572c-8.102,-23.768 -20.562,-43.353 -46.409,-50.056Zm41.491,-33.299c0.451,1.975 2.258,3.34 4.282,3.233c2.024,-0.107 3.677,-1.654 3.917,-3.667c0,0 1.151,-9.752 6.048,-17.475c2.853,-4.5 7.063,-8.368 13.48,-8.247c13.413,0.252 16.663,14.88 14.057,26.53c-2.391,10.691 -7.554,16.167 -16.455,22.745c-9.08,6.709 -14.86,16.678 -18.485,25.723c-2.394,-8.23 -6.871,-17.137 -15.176,-23.668c-10.371,-8.156 -19.384,-19.128 -22.855,-29.155c-1.757,-5.075 -2.122,-9.851 0.172,-13.607c1.503,-2.461 4.124,-4.38 7.931,-5.749c6.338,-2.279 11.022,0.65 14.431,4.768c6.146,7.424 8.653,18.569 8.653,18.569Z"/></g><text x="0" y="549" fill="#000000" font-size="5px" font-weight="bold" font-family="'Helvetica Neue', Helvetica, Arial-Unicode, Arial, Sans-serif">Created by Rifqi Real</text><text x="0" y="554" fill="#000000" font-size="5px" font-weight="bold" font-family="'Helvetica Neue', Helvetica, Arial-Unicode, Arial, Sans-serif">from the Noun Project</text></svg>